<svg width="30" height="38" viewBox="0 0 30 38" fill="none" xmlns="http://www.w3.org/2000/svg">
<path d="M13.967 0.0957031C18.0597 0.18921 21.9648 0.841202 24.8488 3.50586C27.7316 6.16941 29.6154 10.8644 29.6154 19.0947C29.6154 27.3145 26.9335 31.9864 23.4172 34.6074C19.8956 37.2323 15.5192 37.8135 12.1066 37.8135C8.73176 37.8134 6.1279 35.7764 4.36249 32.4111C2.5961 29.044 1.67599 24.3576 1.67596 19.0947C1.67596 13.8331 2.7226 9.03151 4.78339 5.57227C6.84206 2.11663 9.90983 0.00313848 13.967 0.0957031Z" fill="#D9D9D9"/>
<path d="M13.967 0.0957031C18.0597 0.18921 21.9648 0.841202 24.8488 3.50586C27.7316 6.16941 29.6154 10.8644 29.6154 19.0947C29.6154 27.3145 26.9335 31.9864 23.4172 34.6074C19.8956 37.2323 15.5192 37.8135 12.1066 37.8135C8.73176 37.8134 6.1279 35.7764 4.36249 32.4111C2.5961 29.044 1.67599 24.3576 1.67596 19.0947C1.67596 13.8331 2.7226 9.03151 4.78339 5.57227C6.84206 2.11663 9.90983 0.00313848 13.967 0.0957031Z" fill="#E8E46B" fill-opacity="0.71"/>
<path d="M13.967 0.0957031C18.0597 0.18921 21.9648 0.841202 24.8488 3.50586C27.7316 6.16941 29.6154 10.8644 29.6154 19.0947C29.6154 27.3145 26.9335 31.9864 23.4172 34.6074C19.8956 37.2323 15.5192 37.8135 12.1066 37.8135C8.73176 37.8134 6.1279 35.7764 4.36249 32.4111C2.5961 29.044 1.67599 24.3576 1.67596 19.0947C1.67596 13.8331 2.7226 9.03151 4.78339 5.57227C6.84206 2.11663 9.90983 0.00313848 13.967 0.0957031Z" stroke="black" stroke-width="0.18626"/>
<path d="M12.3867 0.0954704C15.765 0.0956574 18.8357 2.19652 21.0664 5.61793C23.2966 9.03868 24.6796 13.77 24.6797 19.0007C24.6797 24.2316 23.2967 28.9637 21.0664 32.3845C18.8357 35.8059 15.765 37.9068 12.3867 37.907C9.00824 37.907 5.93685 35.8061 3.70605 32.3845C1.4758 28.9637 0.0927734 24.2316 0.0927734 19.0007C0.0928507 13.77 1.47586 9.03868 3.70605 5.61793C5.93686 2.19635 9.00822 0.0954704 12.3867 0.0954704Z" fill="#E3E08B" stroke="black" stroke-width="0.18626"/>
<path d="M17.8751 10.5492C17.8751 11.2477 17.6481 11.8297 17.1941 12.2954C16.7401 12.761 16.0562 13.1132 15.1423 13.3518C14.8222 13.4333 14.2925 13.5177 13.5533 13.605C12.8141 13.6865 11.8711 13.7651 10.7245 13.8407L11.1959 17.4903L15.3344 16.818L15.6574 17.8744L11.3706 18.5205L11.4404 18.9396L15.6313 18.6515L15.6138 20.0484L11.615 20.1881L12.5318 26.3172L8.68144 26.8324V25.2695L9.96488 24.9552L9.93869 24.1782L8.68144 24.3353L8.6989 23.1479L9.87757 22.9558L9.85138 22.1526L8.6989 22.301V21.1747L9.83392 20.9652L9.79027 20.1881L8.72509 20.258L8.96083 12.0946L13.239 12.0334C13.8967 12.0218 14.4526 11.9898 14.9066 11.9374C15.3606 11.885 15.7098 11.8181 15.9543 11.7366C16.4374 11.5736 16.7896 11.3204 17.0107 10.977C17.2377 10.6336 17.3338 10.2058 17.2989 9.69356L17.7878 9.78087C17.8169 9.92056 17.8373 10.0544 17.8489 10.1825C17.8664 10.3047 17.8751 10.427 17.8751 10.5492Z" fill="white"/>
</svg>
