<svg width="116" height="38" viewBox="0 0 116 38" fill="none" xmlns="http://www.w3.org/2000/svg">
<path d="M13.967 0.0957031C18.0597 0.18921 21.9648 0.841202 24.8488 3.50586C27.7316 6.16941 29.6154 10.8644 29.6154 19.0947C29.6154 27.3145 26.9335 31.9864 23.4172 34.6074C19.8956 37.2323 15.5192 37.8135 12.1066 37.8135C8.73176 37.8134 6.1279 35.7764 4.36249 32.4111C2.5961 29.044 1.67599 24.3576 1.67596 19.0947C1.67596 13.8331 2.7226 9.03151 4.78339 5.57227C6.84206 2.11663 9.90983 0.00313831 13.967 0.0957031Z" fill="#D9D9D9"/>
<path d="M13.967 0.0957031C18.0597 0.18921 21.9648 0.841202 24.8488 3.50586C27.7316 6.16941 29.6154 10.8644 29.6154 19.0947C29.6154 27.3145 26.9335 31.9864 23.4172 34.6074C19.8956 37.2323 15.5192 37.8135 12.1066 37.8135C8.73176 37.8134 6.1279 35.7764 4.36249 32.4111C2.5961 29.044 1.67599 24.3576 1.67596 19.0947C1.67596 13.8331 2.7226 9.03151 4.78339 5.57227C6.84206 2.11663 9.90983 0.00313831 13.967 0.0957031Z" fill="#E8E46B" fill-opacity="0.71"/>
<path d="M13.967 0.0957031C18.0597 0.18921 21.9648 0.841202 24.8488 3.50586C27.7316 6.16941 29.6154 10.8644 29.6154 19.0947C29.6154 27.3145 26.9335 31.9864 23.4172 34.6074C19.8956 37.2323 15.5192 37.8135 12.1066 37.8135C8.73176 37.8134 6.1279 35.7764 4.36249 32.4111C2.5961 29.044 1.67599 24.3576 1.67596 19.0947C1.67596 13.8331 2.7226 9.03151 4.78339 5.57227C6.84206 2.11663 9.90983 0.00313831 13.967 0.0957031Z" stroke="black" stroke-width="0.18626"/>
<path d="M12.3867 0.0954704C15.765 0.0956574 18.8357 2.19652 21.0664 5.61793C23.2966 9.03868 24.6796 13.77 24.6797 19.0007C24.6797 24.2316 23.2967 28.9637 21.0664 32.3845C18.8357 35.8059 15.765 37.9068 12.3867 37.907C9.00824 37.907 5.93685 35.8061 3.70605 32.3845C1.4758 28.9637 0.0927734 24.2316 0.0927734 19.0007C0.0928507 13.77 1.47586 9.03868 3.70605 5.61793C5.93686 2.19635 9.00822 0.0954704 12.3867 0.0954704Z" fill="#E3E08B" stroke="black" stroke-width="0.18626"/>
<path d="M17.8751 10.5492C17.8751 11.2477 17.6481 11.8297 17.1941 12.2954C16.7401 12.761 16.0562 13.1132 15.1423 13.3518C14.8222 13.4333 14.2925 13.5177 13.5533 13.605C12.8141 13.6865 11.8711 13.7651 10.7245 13.8407L11.1959 17.4903L15.3344 16.818L15.6574 17.8744L11.3706 18.5205L11.4404 18.9396L15.6313 18.6515L15.6138 20.0484L11.615 20.1881L12.5318 26.3172L8.68144 26.8324V25.2695L9.96488 24.9552L9.93869 24.1782L8.68144 24.3353L8.6989 23.1479L9.87757 22.9558L9.85138 22.1526L8.6989 22.301V21.1747L9.83392 20.9652L9.79027 20.1881L8.72509 20.258L8.96083 12.0946L13.239 12.0334C13.8967 12.0218 14.4526 11.9898 14.9066 11.9374C15.3606 11.885 15.7098 11.8181 15.9543 11.7366C16.4374 11.5736 16.7896 11.3204 17.0107 10.977C17.2377 10.6336 17.3338 10.2058 17.2989 9.69356L17.7878 9.78087C17.8169 9.92056 17.8373 10.0544 17.8489 10.1825C17.8664 10.3047 17.8751 10.427 17.8751 10.5492Z" fill="white"/>
<path d="M42.136 29H37.32L38.808 10.248H46.312L47.72 16.536L48.36 19.72L48.968 16.552L50.216 10.248H56.904L58.28 29H53.304L52.488 17.976L52.296 13.912L49.848 27.128H45.672L42.728 13.912L42.632 17.976L42.136 29ZM62.6414 29V23.144L57.3294 10.248H63.3934L65.0414 15.08L66.1454 19.032L67.0574 15.08L68.3054 10.248H73.0734L68.3854 23.048V29H62.6414ZM75.8068 29V14.488H72.0628V10.248H84.9588V14.488H81.2148V29H75.8068ZM91.1616 22.76V29H85.8496V10.248H87.9616C88.4736 10.248 89.2363 10.2267 90.2496 10.184C91.263 10.1307 92.1003 10.104 92.7616 10.104C95.0656 10.104 96.783 10.6107 97.9136 11.624C99.055 12.6373 99.6256 14.1893 99.6256 16.28C99.6256 17.5173 99.3536 18.616 98.8096 19.576C98.2763 20.536 97.567 21.2987 96.6816 21.864C97.1616 21.9813 97.5723 22.2533 97.9136 22.68C98.2656 23.1067 98.5376 23.6133 98.7296 24.2C98.9216 24.776 99.087 25.3627 99.2256 25.96C99.375 26.5467 99.5403 27.128 99.7216 27.704C99.9136 28.28 100.122 28.712 100.346 29H94.4416C94.3243 28.8507 94.2336 28.4347 94.1696 27.752C94.1056 27.0587 94.015 26.232 93.8976 25.272C93.791 24.3013 93.6363 23.4907 93.4336 22.84C93.4123 22.84 93.3856 22.84 93.3536 22.84C93.151 22.84 92.9323 22.84 92.6976 22.84C92.4736 22.8293 92.2763 22.8187 92.1056 22.808C91.935 22.7973 91.7536 22.7867 91.5616 22.776C91.3803 22.7653 91.247 22.76 91.1616 22.76ZM91.1616 19.784H91.6736C91.9403 19.784 92.1643 19.7733 92.3456 19.752C92.527 19.7307 92.7243 19.6933 92.9376 19.64C93.1616 19.576 93.343 19.48 93.4816 19.352C93.631 19.224 93.7696 19.0587 93.8976 18.856C94.0256 18.6533 94.1216 18.392 94.1856 18.072C94.2496 17.752 94.2816 17.3787 94.2816 16.952V15.688C94.2816 14.76 94.0363 14.1147 93.5456 13.752C93.0656 13.3787 92.3723 13.192 91.4656 13.192H91.1616V19.784ZM109.958 29C109.83 28.84 109.553 28.216 109.126 27.128C108.71 26.0293 108.22 24.792 107.654 23.416C107.1 22.0293 106.609 20.9787 106.182 20.264V29H100.886V10.248H106.182V19.224L110.166 10.248H115.494L110.726 19.048C111.036 19.2613 111.446 19.8427 111.958 20.792C112.47 21.7413 112.95 22.7387 113.398 23.784C113.846 24.8293 114.31 25.88 114.79 26.936C115.27 27.9813 115.622 28.6693 115.846 29H109.958Z" fill="black"/>
</svg>
